<?xml version="1.0" standalone="no"?>
<!DOCTYPE svg PUBLIC "-//W3C//DTD SVG 20010904//EN"
 "http://www.w3.org/TR/2001/REC-SVG-20010904/DTD/svg10.dtd">
<svg version="1.0" xmlns="http://www.w3.org/2000/svg"
 width="1600.000000pt" height="914.000000pt" viewBox="0 0 1600.000000 914.000000"
 preserveAspectRatio="xMidYMid meet">

<g transform="translate(0.000000,914.000000) scale(0.100000,-0.100000)"
fill="#000000" stroke="none">
<path d="M0 4570 l0 -4570 8000 0 8000 0 0 4570 0 4570 -8000 0 -8000 0 0
-4570z m7997 3138 c3 -62 10 -119 16 -125 6 -9 6 -13 -1 -13 -14 0 -5 -282 10
-322 12 -31 15 -33 122 -48 83 -12 252 -74 324 -118 112 -70 432 -365 432
-399 0 -24 1 -28 15 -43 21 -24 96 -180 112 -233 8 -26 21 -83 29 -125 15 -85
41 -182 49 -190 7 -8 105 -20 175 -22 l55 -2 -40 -10 c-22 -5 -75 -7 -117 -5
-53 4 -80 1 -87 -7 -6 -7 -15 -54 -22 -106 -16 -134 -77 -312 -140 -405 -14
-22 -47 -71 -72 -110 -62 -95 -129 -171 -196 -223 -89 -69 -129 -115 -118
-134 6 -8 7 -24 2 -34 -7 -17 -8 -17 -15 6 -4 17 -13 24 -26 23 -123 -15 -134
-15 -158 1 -14 9 -36 16 -48 17 -22 1 -22 1 3 8 14 5 41 15 60 24 19 9 43 18
54 20 11 3 -6 5 -37 6 -69 1 -81 15 -33 35 20 9 34 20 30 26 -3 5 1 10 9 10 8
0 18 5 22 12 5 8 -7 9 -47 5 l-54 -6 25 19 c14 11 41 22 60 26 60 11 70 23 18
24 -56 0 -78 7 -78 26 0 29 71 45 110 24 16 -8 23 -4 44 23 15 19 26 37 26 40
0 3 -19 -3 -42 -13 -47 -21 -150 -28 -131 -9 6 6 38 13 72 16 77 7 93 25 20
23 -98 -3 -103 -2 -88 16 10 13 10 17 -2 25 -12 7 -12 9 0 9 11 0 10 4 -4 13
-16 13 -14 15 26 22 24 4 47 9 52 10 4 1 25 3 47 4 22 0 40 6 40 12 0 8 -28 9
-97 5 -89 -6 -96 -5 -79 9 11 8 29 15 40 16 21 0 21 1 1 9 -16 7 -12 9 20 10
57 3 100 14 98 26 -1 5 11 11 27 12 28 2 29 1 23 -33 -6 -35 -1 -40 33 -36 16
2 13 -32 -5 -47 -13 -10 -11 -10 11 -1 15 7 25 17 21 22 -4 6 0 8 11 4 10 -4
15 -3 11 3 -3 5 10 20 30 33 19 13 32 27 28 30 -3 4 1 7 9 7 9 0 19 7 22 16 4
11 2 15 -7 11 -8 -3 -14 1 -14 9 0 8 10 14 22 14 27 0 45 18 45 46 0 17 -4 21
-20 17 -14 -4 -20 0 -20 10 0 11 7 14 23 12 17 -4 27 3 41 25 9 17 16 38 15
48 -2 16 0 25 18 70 4 9 7 26 7 37 1 10 11 24 24 31 l23 11 -27 18 c-19 12
-23 19 -14 25 7 4 10 12 6 18 -3 6 1 15 10 20 16 9 16 12 1 50 -9 22 -14 42
-11 44 2 3 -2 11 -11 18 -20 17 -19 28 3 26 10 0 16 5 14 13 -2 8 -7 37 -12
64 -6 27 -19 69 -30 94 -11 25 -20 51 -20 57 0 14 -56 93 -82 117 -10 9 -15
19 -11 23 3 3 1 6 -6 6 -8 0 -11 7 -7 15 3 8 2 14 -2 13 -4 -1 -27 18 -50 42
-39 40 -45 42 -54 26 -5 -10 -8 -26 -5 -37 3 -10 1 -22 -4 -25 -5 -3 -7 -15
-3 -28 4 -17 -1 -25 -21 -34 -15 -7 -31 -9 -37 -6 -6 4 -46 6 -90 5 -54 -1
-78 1 -73 8 3 6 19 11 36 11 39 0 36 12 -9 32 l-37 16 45 2 45 2 -45 12 -45
12 69 6 c38 3 81 2 96 -2 24 -7 26 -6 22 16 -4 23 -7 24 -109 24 -67 0 -102 4
-98 10 3 6 37 10 75 10 l68 0 -17 48 c-16 41 -25 51 -72 74 -114 57 -325 99
-344 68 -3 -5 0 -10 7 -11 25 -1 -27 -18 -58 -18 -44 -1 -96 19 -90 34 2 8 -2
16 -11 19 -13 5 -13 9 -2 22 29 36 -35 40 -139 9 -48 -15 -172 -87 -211 -123
-28 -26 -64 -109 -51 -117 5 -3 29 -8 53 -11 34 -5 51 -2 69 11 20 15 20 16 3
12 -87 -22 -101 -13 -20 12 50 16 367 21 371 6 2 -5 -9 -19 -24 -30 -23 -17
-51 -20 -239 -27 -118 -4 -221 -12 -233 -18 -13 -7 -20 -21 -20 -40 0 -28 2
-30 41 -30 24 0 38 4 34 10 -4 6 9 9 32 9 36 -2 36 -2 8 -7 -27 -5 -26 -6 15
-11 l45 -6 -65 -18 c-36 -10 -84 -21 -107 -24 l-42 -5 14 58 c13 59 12 79 -6
69 -5 -4 -9 1 -9 9 0 8 5 18 10 21 18 11 11 23 -10 18 -11 -3 -20 -9 -20 -12
0 -4 -20 -18 -45 -30 -24 -12 -54 -35 -65 -51 -26 -36 -55 -104 -41 -95 16 9
13 -1 -9 -37 -11 -18 -20 -39 -20 -47 0 -8 -6 -22 -14 -30 -15 -17 -46 -117
-46 -148 0 -15 2 -16 10 -3 7 10 8 -6 3 -49 -4 -44 -3 -62 4 -58 6 4 14 0 17
-9 5 -12 2 -15 -11 -10 -15 5 -15 4 1 -9 20 -15 20 -15 0 -16 -10 0 -14 -3 -8
-5 7 -3 27 2 45 11 20 9 25 14 12 11 -13 -2 -24 2 -27 11 -9 22 -7 35 4 28 6
-3 16 -3 23 2 6 4 14 8 17 8 7 0 92 26 115 35 19 7 18 9 -8 19 -24 9 -26 13
-15 30 7 11 16 17 21 14 4 -3 17 3 28 13 15 14 38 19 87 19 37 1 79 5 95 9 21
6 27 5 27 -7 0 -20 -22 -27 -85 -27 -30 0 -57 -4 -60 -10 -6 -9 8 -14 27 -11
5 0 7 -5 5 -12 -1 -6 5 -11 13 -9 8 2 37 5 65 7 l50 4 -50 -12 c-44 -12 -47
-14 -25 -20 14 -4 39 -7 57 -7 17 0 34 -4 37 -9 8 -12 -29 -21 -91 -21 -29 0
-53 -2 -53 -4 0 -27 16 -36 69 -36 92 0 92 -15 -1 -34 -46 -10 -92 -18 -103
-19 -31 -3 -36 -30 -8 -44 18 -9 38 -10 75 -3 64 12 101 13 94 1 -3 -5 -33
-12 -67 -16 -56 -7 -59 -8 -40 -22 13 -9 39 -13 67 -11 54 3 73 -17 25 -26
-17 -3 -44 -9 -61 -12 -17 -3 -30 -12 -30 -20 0 -11 15 -14 63 -14 68 -1 62
-13 -13 -25 -77 -12 -118 -27 -123 -45 -4 -17 3 -18 82 -14 82 3 136 -8 101
-20 -123 -43 -320 -47 -320 -5 0 6 18 31 40 56 28 33 37 49 30 58 -5 6 -8 14
-5 17 3 2 -17 3 -43 0 -26 -2 -57 -4 -69 -5 -15 -1 -23 -7 -23 -19 0 -30 -1
-32 -21 -64 -26 -42 -24 -50 11 -63 35 -12 41 -31 8 -24 -21 4 -21 3 -5 -7 14
-9 16 -15 7 -25 -9 -11 -8 -21 2 -42 18 -38 104 -63 146 -42 38 19 63 46 57
62 -3 7 2 22 12 33 15 16 32 19 100 19 l82 0 -21 -22 -21 -23 29 -1 c25 0 26
-2 9 -9 -11 -5 -34 -9 -52 -9 -17 -1 -35 -5 -38 -11 -3 -5 -14 -10 -23 -10 -9
0 -29 -6 -43 -14 -14 -7 -39 -16 -55 -20 -26 -7 -27 -9 -12 -20 10 -7 14 -16
10 -21 -4 -4 2 -3 13 3 55 30 215 56 200 33 -3 -5 -30 -13 -61 -17 -30 -3 -53
-9 -50 -11 5 -5 74 -24 94 -25 7 -1 11 -7 8 -13 -2 -7 8 -18 22 -25 l27 -12
-48 -13 c-46 -12 -72 -25 -49 -25 24 0 11 -18 -20 -30 l-33 -13 45 -8 c25 -4
56 -12 70 -18 20 -8 14 -9 -30 -4 -79 9 -93 9 -96 -2 -3 -6 16 -9 48 -7 52 4
59 -9 13 -22 -11 -3 1 -3 26 0 33 3 49 1 58 -10 10 -12 4 -16 -41 -25 -29 -6
-66 -12 -81 -14 -15 -1 -27 -5 -27 -9 0 -5 2 -7 3 -5 2 1 12 -4 21 -12 10 -9
36 -14 59 -13 32 1 37 -1 22 -8 -17 -7 -14 -9 15 -10 34 -2 33 -3 -15 -14
l-50 -12 34 -17 c19 -9 40 -17 48 -17 8 0 11 -4 8 -10 -3 -5 -16 -10 -28 -10
-21 -1 -21 -2 6 -25 l28 -25 -33 0 c-25 0 -29 -3 -18 -10 11 -7 7 -10 -17 -10
-18 0 -33 -4 -33 -10 0 -5 14 -10 30 -10 20 0 30 -5 30 -15 0 -10 11 -15 33
-16 l32 -1 -35 -9 c-85 -20 -188 -31 -207 -21 -17 10 -16 11 6 19 22 9 22 10
6 26 -9 10 -21 15 -25 12 -5 -3 -15 3 -22 14 -9 14 -19 18 -43 14 -27 -4 -38
1 -79 42 -34 33 -46 52 -43 66 5 19 -47 104 -132 212 -45 58 -93 151 -132 259
-16 45 -33 86 -38 92 -13 16 -28 87 -36 171 -3 38 -8 72 -11 74 -3 3 -66 11
-142 17 l-137 13 120 -4 c66 -2 131 -7 145 -10 19 -5 21 -4 9 4 -8 5 -49 14
-90 20 -41 5 -85 14 -99 19 -23 10 -21 11 19 11 37 1 42 3 31 16 -20 24 22 19
54 -6 45 -35 67 -23 93 51 12 36 23 58 24 50 0 -8 7 21 15 65 27 151 68 242
190 425 71 107 68 103 180 210 43 41 77 76 76 78 -4 6 226 125 300 155 20 9
83 25 140 37 57 12 117 29 133 39 29 16 31 22 43 122 6 57 14 175 17 263 2 87
7 161 10 164 3 3 5 19 5 36 0 22 3 27 11 19 6 -6 14 -62 16 -125z m938 1 c0
-7 -8 -15 -17 -17 -18 -3 -25 18 -11 32 10 10 28 1 28 -15z m-1907 -1 c-3 -7
-13 -13 -23 -13 -10 0 -20 6 -22 13 -3 7 5 12 22 12 17 0 25 -5 23 -12z m1472
-98 c0 -5 -5 -10 -11 -10 -5 0 -7 5 -4 10 3 6 8 10 11 10 2 0 4 -4 4 -10z
m-890 -150 c0 -5 -5 -10 -11 -10 -5 0 -7 5 -4 10 3 6 8 10 11 10 2 0 4 -4 4
-10z m1190 -15 c0 -20 -5 -25 -24 -25 -14 0 -28 4 -31 10 -3 5 0 7 9 4 9 -3
20 3 28 15 16 27 18 26 18 -4z m-1685 -35 c-4 -6 8 -15 25 -21 43 -16 33 -20
-17 -7 -34 8 -40 13 -30 24 14 16 31 19 22 4z m1040 -10 c3 -5 1 -10 -4 -10
-6 0 -11 5 -11 10 0 6 2 10 4 10 3 0 8 -4 11 -10z m138 -137 c-7 -2 -19 -2
-25 0 -7 3 -2 5 12 5 14 0 19 -2 13 -5z m-1482 -73 c13 0 30 -4 38 -9 12 -8
12 -12 2 -25 -17 -20 -45 -20 -61 -1 -7 8 -9 15 -4 15 4 0 -5 15 -22 32 -23
27 -24 29 -3 10 14 -12 36 -22 50 -22z m2339 -28 c0 -4 -16 -24 -35 -42 -30
-29 -37 -32 -45 -20 -13 21 -12 30 3 30 6 0 23 9 37 20 27 21 40 25 40 12z
m-675 -22 c8 -13 -5 -13 -25 0 -13 8 -13 10 2 10 9 0 20 -4 23 -10z m-1175
-56 c12 -19 20 -37 18 -39 -2 -3 -15 13 -27 35 -28 50 -21 53 9 4z m-850 -24
c0 -5 -2 -10 -4 -10 -3 0 -8 5 -11 10 -3 6 -1 10 4 10 6 0 11 -4 11 -10z
m2285 -20 c3 -6 -4 -10 -17 -10 -18 0 -20 2 -8 10 19 12 18 12 25 0z m-912
-447 c-18 -2 -48 -2 -65 0 -18 2 -4 4 32 4 36 0 50 -2 33 -4z m767 -63 c8 -5
11 -10 5 -10 -5 0 -17 5 -25 10 -8 5 -10 10 -5 10 6 0 17 -5 25 -10z m-671 -4
c-2 -2 -49 -6 -104 -9 -58 -3 -81 -2 -55 3 48 7 166 12 159 6z m-479 -37 c28
-16 -46 -10 -76 6 -29 15 -29 15 16 9 25 -4 52 -10 60 -15z m125 11 c14 -6 5
-9 -35 -9 -40 0 -49 3 -35 9 11 5 27 9 35 9 8 0 24 -4 35 -9z m88 3 c-13 -2
-33 -2 -45 0 -13 2 -3 4 22 4 25 0 35 -2 23 -4z m-330 -10 c-7 -2 -19 -2 -25
0 -7 3 -2 5 12 5 14 0 19 -2 13 -5z m1140 -10 c-26 -10 -12 -21 33 -26 25 -2
50 -11 57 -19 7 -8 23 -21 37 -30 30 -19 38 -63 13 -73 -15 -5 -15 -7 -3 -16
12 -8 12 -12 2 -16 -10 -4 -10 -8 0 -21 11 -13 10 -15 -12 -9 -14 4 -36 7 -49
7 -20 0 -21 2 -11 15 10 13 9 15 -9 15 -12 0 -19 5 -16 10 3 6 16 10 28 10 20
0 20 1 2 14 -10 7 -27 11 -38 8 -14 -3 -18 -1 -13 6 4 7 2 12 -3 12 -6 0 -10
6 -8 12 1 9 -24 15 -86 19 -48 3 -90 9 -93 12 -4 3 15 11 40 18 44 11 46 13
31 30 -16 16 -15 18 12 22 41 6 100 6 86 0z m-963 -13 c0 -5 -6 -10 -13 -10
-8 0 -22 -9 -33 -21 l-19 -21 38 7 c66 13 115 -14 52 -27 -11 -3 9 -9 45 -13
72 -9 71 -11 -11 -20 -31 -3 -65 -13 -75 -21 -17 -13 -14 -14 33 -12 28 2 49
0 46 -5 -2 -4 -37 -7 -76 -6 -40 1 -96 -1 -125 -4 -31 -3 -50 -2 -47 4 4 5 -2
9 -12 10 -11 0 -13 3 -5 6 6 2 10 8 7 13 -3 5 5 12 17 16 12 3 28 13 35 20 11
11 10 15 -4 23 -16 9 -16 12 -3 25 15 15 101 44 133 45 9 1 17 -3 17 -9z m378
-17 c-10 -2 -26 -2 -35 0 -10 3 -2 5 17 5 19 0 27 -2 18 -5z m-90 -10 c-10 -2
-28 -2 -40 0 -13 2 -5 4 17 4 22 1 32 -1 23 -4z m907 -3 c3 -5 -1 -10 -9 -10
-8 0 -18 5 -21 10 -3 6 1 10 9 10 8 0 18 -4 21 -10z m-1490 -22 c-9 -27 -22
-44 -30 -36 -8 7 16 58 27 58 5 0 6 -10 3 -22z m583 -5 c-10 -2 -26 -2 -35 0
-10 3 -2 5 17 5 19 0 27 -2 18 -5z m255 -30 c-7 -2 -21 -2 -30 0 -10 3 -4 5
12 5 17 0 24 -2 18 -5z m687 -3 c0 -5 -4 -10 -10 -10 -5 0 -10 5 -10 10 0 6 5
10 10 10 6 0 10 -4 10 -10z m-815 -10 c-27 -5 -72 -8 -100 -8 -47 1 -48 1 -15
8 19 4 64 7 100 7 l65 0 -50 -7z m527 -20 c-30 -28 -28 -38 11 -42 l32 -4 -25
-11 -25 -11 35 -8 35 -8 -40 -7 c-50 -10 -118 -11 -139 -3 -13 5 -13 8 -1 20
7 8 21 14 30 14 23 0 14 22 -15 37 -23 11 -23 12 -5 18 11 4 29 11 40 16 21 9
77 17 84 12 3 -2 -5 -12 -17 -23z m-1286 -41 c-18 -41 -21 -26 -4 22 6 18 13
29 15 23 2 -6 -3 -26 -11 -45z m692 4 c-10 -2 -26 -2 -35 0 -10 3 -2 5 17 5
19 0 27 -2 18 -5z m189 -29 c-3 -3 -12 -4 -19 -1 -8 3 -5 6 6 6 11 1 17 -2 13
-5z m-98 -14 c-28 -8 -190 -22 -174 -15 11 5 145 22 180 23 15 0 13 -2 -6 -8z
m727 -57 c-8 -8 -36 5 -36 17 0 7 6 7 21 0 11 -7 18 -14 15 -17z m-806 -14
c-25 -4 -58 -7 -75 -7 -29 1 -29 1 5 8 19 4 53 7 75 7 l40 0 -45 -8z m773 -27
c66 -17 121 -32 123 -35 2 -2 -26 -7 -64 -10 -79 -8 -140 -26 -122 -37 8 -5 7
-9 -5 -14 -9 -3 -13 -11 -10 -16 4 -7 -5 -8 -27 -4 -18 3 -37 6 -43 5 -140
-10 -188 -10 -160 1 l30 12 -25 6 c-24 7 -24 7 10 18 29 8 31 10 11 11 -40 2
-12 18 47 29 30 5 62 7 73 5 10 -3 19 0 19 5 0 14 -37 35 -48 28 -5 -3 -39 -1
-78 3 -69 7 -69 7 -34 19 56 18 175 8 303 -26z m82 4 c41 -12 44 -14 20 -15
-16 0 -43 6 -60 14 -39 18 -22 18 40 1z m912 -40 c-20 -30 -57 -34 -57 -6 0
22 35 41 58 32 10 -3 10 -9 -1 -26z m-3402 10 c18 -13 18 -14 -4 -21 -25 -8
-47 7 -37 24 9 14 18 14 41 -3z m1700 -7 c-22 -4 -65 -7 -95 -7 l-55 1 50 7
c28 4 70 7 95 7 l45 1 -40 -9z m38 -66 c-7 -2 -21 -2 -30 0 -10 3 -4 5 12 5
17 0 24 -2 18 -5z m-93 -14 c-25 -4 -58 -7 -75 -7 -29 0 -29 0 -5 8 14 4 48 8
75 8 l50 -1 -45 -8z m726 -37 c29 0 60 -4 70 -10 16 -9 13 -11 -21 -17 -22 -4
-44 -8 -50 -9 -5 -2 29 -6 77 -10 87 -8 114 -19 87 -37 -13 -9 -132 -4 -170 7
-9 3 -19 -2 -22 -11 -5 -11 3 -16 33 -21 37 -6 56 -23 28 -25 -10 0 -10 -2 0
-6 6 -2 12 -9 12 -14 0 -6 -4 -7 -10 -4 -6 3 -7 -1 -4 -9 3 -9 11 -16 16 -16
6 0 7 -7 4 -16 -4 -11 -2 -15 8 -11 9 4 13 1 10 -7 -3 -7 4 -21 16 -31 24 -21
26 -50 5 -59 -8 -3 -15 -2 -15 3 0 4 -7 8 -15 8 -10 0 -14 -6 -10 -15 5 -13 3
-13 -12 -1 -11 9 -14 10 -9 2 4 -7 4 -13 -1 -14 -4 0 -19 -2 -32 -3 -13 -2
-31 -12 -40 -23 -18 -22 -115 -43 -202 -43 l-53 0 33 24 c19 14 46 28 62 31
16 4 32 11 35 17 5 8 -12 9 -57 6 -35 -4 -54 -3 -41 0 13 4 22 12 20 17 -2 6
13 15 32 22 32 11 28 12 -40 8 l-75 -5 59 20 c32 11 70 21 85 22 28 2 44 14
49 37 2 10 -6 12 -30 8 -136 -25 -196 -14 -89 16 32 9 64 23 71 32 11 13 6 15
-40 15 l-52 0 29 24 c20 16 45 24 88 28 59 5 59 5 21 -7 -51 -15 -35 -24 39
-24 51 1 55 2 34 13 -13 7 -23 18 -21 24 1 8 -21 12 -70 13 -40 0 -91 4 -113
8 l-40 7 55 12 c30 6 82 13 115 16 32 4 64 11 69 16 6 6 12 6 15 1 3 -5 29 -9
57 -9z m-543 -9 c-7 -2 -19 -2 -25 0 -7 3 -2 5 12 5 14 0 19 -2 13 -5z m-123
-18 c-68 -12 -209 -19 -185 -9 19 7 150 21 205 22 l55 0 -75 -13z m-213 -21
c-3 -3 -12 -4 -19 -1 -8 3 -5 6 6 6 11 1 17 -2 13 -5z m560 0 c-3 -3 -12 -4
-19 -1 -8 3 -5 6 6 6 11 1 17 -2 13 -5z m-1457 -24 c0 -5 -2 -10 -4 -10 -3 0
-8 5 -11 10 -3 6 -1 10 4 10 6 0 11 -4 11 -10z m1248 -7 c-10 -2 -26 -2 -35 0
-10 3 -2 5 17 5 19 0 27 -2 18 -5z m-126 -18 c-55 -12 -264 -20 -237 -9 12 5
204 21 260 22 34 0 31 -1 -23 -13z m-37 -76 c-22 -4 -53 -8 -70 -7 -29 1 -29
1 5 8 19 4 51 7 70 8 l35 0 -40 -9z m-112 -16 c-7 -2 -19 -2 -25 0 -7 3 -2 5
12 5 14 0 19 -2 13 -5z m127 -53 c0 -5 -8 -10 -19 -10 -10 0 -33 -3 -50 -6
-19 -4 -31 -2 -31 4 0 9 22 15 83 20 9 1 17 -2 17 -8z m3 -67 c-7 -2 -19 -2
-25 0 -7 3 -2 5 12 5 14 0 19 -2 13 -5z m-55 -10 c-10 -2 -26 -2 -35 0 -10 3
-2 5 17 5 19 0 27 -2 18 -5z m-71 -9 c-3 -3 -12 -4 -19 -1 -8 3 -5 6 6 6 11 1
17 -2 13 -5z m-257 -28 c0 -2 -7 -6 -15 -10 -8 -3 -15 -1 -15 4 0 6 7 10 15
10 8 0 15 -2 15 -4z m368 -13 c-10 -2 -26 -2 -35 0 -10 3 -2 5 17 5 19 0 27
-2 18 -5z m-70 -10 c-10 -2 -26 -2 -35 0 -10 3 -2 5 17 5 19 0 27 -2 18 -5z
m115 -50 c-7 -2 -19 -2 -25 0 -7 3 -2 5 12 5 14 0 19 -2 13 -5z m-1318 -15 c7
-7 -290 -18 -458 -17 -65 0 -117 3 -114 5 15 15 557 27 572 12z m1248 5 c-13
-2 -33 -2 -45 0 -13 2 -3 4 22 4 25 0 35 -2 23 -4z m1917 -3 c27 -9 7 -10
-250 -17 -164 -4 -363 7 -310 18 49 9 530 9 560 -1z m-1732 -47 c-10 -2 -26
-2 -35 0 -10 3 -2 5 17 5 19 0 27 -2 18 -5z m-158 -19 c-41 -8 -97 -13 -125
-12 -46 3 -43 4 35 14 127 17 183 15 90 -2z m-1 -68 c-2 -2 -40 -6 -84 -9 -48
-3 -70 -2 -55 3 24 8 148 14 139 6z m-19 -72 c-36 -8 -78 -13 -95 -12 -24 3
-20 6 25 15 30 6 73 11 95 11 35 0 31 -2 -25 -14z m30 -69 c-36 -7 -90 -15
-120 -18 -52 -6 -53 -6 -15 4 61 16 126 27 165 27 24 0 14 -4 -30 -13z m-25
-75 c-16 -4 -50 -8 -75 -7 l-45 0 40 7 c22 4 56 7 75 7 l35 1 -30 -8z m-137
-17 c-10 -2 -26 -2 -35 0 -10 3 -2 5 17 5 19 0 27 -2 18 -5z m157 -43 c-22 -4
-80 -10 -130 -13 l-90 -5 90 13 c50 7 108 12 130 13 l40 0 -40 -8z m-862 -33
c-36 -19 -40 -24 -31 -41 9 -16 5 -25 -27 -54 -36 -33 -39 -34 -51 -17 -12 16
-12 22 -1 39 17 26 117 95 137 95 8 0 -4 -10 -27 -22z m1779 -6 c7 1 21 1 32
0 14 -1 16 -4 7 -14 -8 -11 -5 -19 14 -37 14 -13 25 -32 25 -42 0 -22 1 -22
-37 -3 -34 17 -50 33 -55 55 -2 8 -11 21 -20 28 -10 7 -18 20 -18 29 0 14 2
14 19 -1 10 -10 25 -16 33 -15z m-893 -25 c-6 -6 -201 -27 -206 -22 -2 2 24 8
59 14 67 10 154 15 147 8z m-39 -81 c-30 -8 -77 -16 -105 -19 -43 -5 -46 -4
-20 5 34 12 118 26 155 27 14 0 0 -6 -30 -13z m558 -17 c-8 -22 -61 -31 -109
-17 -41 11 -42 13 -19 20 44 13 132 11 128 -3z m-878 -18 c0 -5 -26 -10 -57
-11 l-58 -1 41 -11 c25 -8 39 -17 37 -24 -3 -8 4 -13 16 -13 40 0 21 -17 -25
-24 -91 -12 -93 -11 -88 36 2 23 9 45 16 50 19 11 118 10 118 -2z m437 -26
c-10 -10 -189 -43 -232 -43 -37 0 -38 1 -15 11 20 8 95 19 244 37 5 1 7 -2 3
-5z m413 -4 c0 -5 12 -11 28 -11 l27 -1 -30 -8 c-16 -4 -52 -8 -80 -8 -27 0
-41 3 -30 5 11 3 24 11 28 19 9 16 57 19 57 4z m28 -63 c-39 -15 -35 -24 15
-33 l42 -8 -50 -12 c-60 -14 -154 -17 -174 -5 -15 9 -10 12 52 25 15 4 25 11
22 16 -9 15 28 29 75 29 43 -1 44 -2 18 -12z m-921 -24 c-10 -9 -127 -11 -127
-1 0 4 30 8 67 8 36 0 63 -3 60 -7z m510 1 c-3 -3 -12 -4 -19 -1 -8 3 -5 6 6
6 11 1 17 -2 13 -5z m-107 -14 c-58 -9 -198 -21 -185 -15 15 7 145 22 190 23
l40 0 -45 -8z m-357 -59 c38 -2 4 -20 -49 -27 -42 -5 -58 -3 -65 7 -12 20 10
29 56 25 22 -3 48 -5 58 -5z m862 -1 c3 -5 0 -10 -7 -10 -7 0 -30 -3 -50 -6
-24 -4 -38 -3 -38 4 0 6 15 13 33 15 17 2 37 5 44 5 6 1 15 -2 18 -8z m-561
-10 c-27 -11 -161 -24 -152 -15 7 8 96 22 143 23 26 1 27 0 9 -8z m-457 -6
c-3 -3 -12 -4 -19 -1 -8 3 -5 6 6 6 11 1 17 -2 13 -5z m164 -45 c-18 -7 -22
-15 -19 -34 3 -14 -1 -33 -9 -42 -8 -10 -12 -12 -8 -5 3 6 1 12 -6 12 -8 0
-10 11 -6 34 3 18 1 38 -4 43 -5 5 9 7 34 4 37 -3 39 -5 18 -12z m749 -39 c0
-25 -4 -30 -23 -30 -13 0 -31 6 -41 13 -15 11 -15 15 -4 24 11 9 35 18 61 22
4 0 7 -12 7 -29z m-717 -7 c-7 -2 -19 -2 -25 0 -7 3 -2 5 12 5 14 0 19 -2 13
-5z m238 -15 c-56 -6 -92 -6 -105 1 -15 7 7 9 84 9 l105 -1 -84 -9z m545 -68
c15 -28 33 -49 39 -46 6 2 26 -8 44 -23 28 -23 35 -36 38 -76 l5 -47 -66 -64
-66 -63 0 -98 c0 -84 -3 -101 -19 -115 -18 -15 -19 -14 -26 26 -4 22 -10 48
-12 56 -5 17 -21 124 -19 127 1 1 14 4 28 7 15 2 33 8 41 13 26 15 89 74 84
79 -12 13 -85 16 -487 21 -428 5 -436 5 -460 -15 l-25 -21 35 -35 c31 -31 63
-43 123 -46 4 0 7 -17 8 -37 0 -21 4 -47 9 -58 6 -14 9 -4 9 38 1 31 6 57 11
57 6 0 10 -26 10 -57 0 -32 3 -68 6 -80 6 -20 2 -23 -22 -24 -25 0 -26 -1 -9
-9 17 -7 15 -9 -12 -9 -18 -1 -33 4 -33 9 0 6 -4 10 -10 10 -5 0 -7 -7 -4 -15
4 -10 0 -15 -15 -15 -20 0 -21 5 -21 83 l0 83 -47 49 c-25 27 -66 62 -90 77
-35 22 -43 33 -42 55 1 20 3 22 6 9 4 -15 9 -11 23 20 10 22 32 55 49 74 30
34 31 34 25 8 -5 -21 -2 -26 13 -25 13 2 19 -6 21 -30 6 -59 -3 -58 449 -60
l413 -2 1 22 c3 59 -1 99 -14 124 -18 35 -30 73 -23 73 2 0 17 -23 32 -50z
m-585 -10 c36 -31 33 -47 -11 -50 -56 -5 -60 -2 -60 40 0 50 22 53 71 10z
m-164 -122 c-3 -7 -5 -2 -5 12 0 14 2 19 5 13 2 -7 2 -19 0 -25z m201 -187
l32 -1 0 -89 c0 -77 2 -90 18 -94 9 -3 -30 -5 -88 -5 -61 0 -97 3 -85 7 11 5
25 6 31 4 18 -7 24 22 17 92 -6 63 -11 72 -45 66 -5 0 -8 4 -8 10 0 6 6 9 13
6 8 -3 19 -2 26 2 6 4 22 6 34 5 12 -1 37 -3 55 -3z m449 -134 c-2 -23 -3 -1
-3 48 0 50 1 68 3 42 2 -26 2 -67 0 -90z m-80 -14 c-2 -16 -4 -5 -4 22 0 28 2
40 4 28 2 -13 2 -35 0 -50z m-467 23 c0 -2 -8 -10 -17 -17 -16 -13 -17 -12 -4
4 13 16 21 21 21 13z m-110 -112 c0 -13 18 -14 148 -9 120 6 154 4 187 -9 38
-14 28 -15 -177 -13 -120 1 -218 3 -218 5 0 1 10 7 23 12 22 9 22 9 -3 10
l-25 2 25 8 c37 12 40 11 40 -6z m740 -28 c0 -9 -17 -11 -57 -9 -76 6 -90 11
-31 12 26 1 49 5 53 11 8 12 35 1 35 -14z m-3 -50 c-17 -14 -17 -15 5 -22 20
-7 17 -9 -21 -16 -25 -4 -51 -3 -60 2 -13 8 -12 10 9 11 20 1 18 3 -10 9 l-35
7 35 2 c19 1 42 6 50 11 8 5 22 10 30 10 12 -1 11 -4 -3 -14z m-407 -15 c3 -4
14 -13 25 -19 27 -16 -274 -16 -363 -1 -60 11 -71 23 -28 31 35 6 361 -3 366
-11z m-310 -88 c0 -24 2 -25 48 -19 111 15 162 16 252 2 l95 -14 -95 -3 c-52
-2 -144 -2 -203 0 l-108 3 3 -33 3 -34 150 -3 c217 -4 211 -22 -7 -22 -109 0
-187 -4 -205 -11 l-28 -12 25 -7 c22 -7 22 -8 4 -9 -11 -1 -24 2 -27 5 -12 12
14 45 42 55 21 7 27 16 27 37 -1 32 -12 42 -48 42 -16 0 -28 5 -28 10 0 6 11
10 23 10 13 0 32 9 42 20 22 24 35 18 35 -17z m740 -8 c0 -20 -35 -28 -91 -20
-46 6 -49 8 -35 24 19 20 126 17 126 -4z m-11 -101 c10 -9 -9 -15 -57 -17 -53
-2 -69 4 -57 23 5 9 24 10 59 5 28 -3 53 -8 55 -11z m-489 -34 c15 -5 -37 -8
-125 -7 l-150 1 115 6 c63 3 120 6 125 7 6 1 21 -3 35 -7z m-225 -54 c21 -23
21 -24 2 -35 -23 -15 -23 -15 -32 27 -8 38 0 40 30 8z m690 3 c11 -17 -3 -23
-48 -24 -39 0 -56 9 -57 28 0 11 98 8 105 -4z m-377 -36 c64 -7 50 -23 -21
-23 l-49 0 6 -57 c6 -56 -4 -96 -21 -80 -4 4 -9 37 -11 72 l-4 65 -60 0 c-53
0 -59 2 -48 15 14 16 110 20 208 8z m-171 -100 c-2 -16 -4 -5 -4 22 0 28 2 40
4 28 2 -13 2 -35 0 -50z m19 -55 c4 -6 2 -14 -4 -16 -7 -2 -12 -10 -12 -18 0
-8 -10 -14 -24 -14 -34 0 -42 18 -11 26 14 3 25 12 25 20 0 17 16 18 26 2z
m330 -24 c-5 -14 -4 -15 8 -5 8 7 17 8 20 3 8 -13 -17 -22 -43 -15 -30 8 -25
33 7 33 9 0 12 -6 8 -16z m-1966 -660 l0 -277 130 7 129 7 28 -53 c15 -29 29
-56 31 -59 6 -12 -400 -30 -412 -18 -4 3 -9 152 -13 332 l-6 325 29 5 c16 2
41 5 57 6 l27 1 0 -276z m-190 237 c0 -16 -4 -41 -10 -55 l-10 -26 -143 0
c-79 0 -146 -2 -148 -4 -2 -2 -3 -45 -1 -95 l3 -91 105 0 104 0 0 -69 0 -68
-37 -7 c-21 -3 -66 -6 -100 -6 l-63 0 0 -71 0 -72 70 7 c39 3 101 9 139 12
l69 7 7 -59 c3 -33 9 -71 11 -86 7 -33 5 -34 -161 -48 -66 -6 -136 -13 -155
-16 -40 -6 -65 9 -74 46 -6 24 -6 24 5 3 17 -32 29 -34 142 -18 56 8 125 15
154 15 57 0 67 7 49 32 -11 15 -23 15 -153 1 -77 -9 -152 -13 -165 -10 -34 9
-40 42 -37 210 1 84 -2 141 -10 154 -7 14 -11 81 -11 182 l0 161 210 0 210 0
0 -29z m906 18 c4 -7 7 -25 6 -41 -1 -24 2 -27 13 -18 8 6 16 7 19 2 13 -21
-26 -31 -156 -37 l-138 -8 0 -68 0 -69 105 0 105 0 0 -44 c0 -53 -24 -76 -80
-76 -19 0 -59 -3 -87 -6 l-53 -7 0 -71 0 -72 144 4 144 4 7 -49 c3 -28 13 -62
20 -77 l14 -26 -175 0 c-96 0 -174 2 -174 4 0 2 -3 13 -6 23 -6 15 -4 16 7 6
16 -15 210 -18 225 -4 5 5 25 11 44 14 19 2 -31 5 -112 5 -81 1 -158 6 -173
12 -43 16 -55 62 -55 215 0 101 3 135 13 135 9 0 9 2 0 8 -8 5 -15 52 -19 130
l-7 122 181 0 c125 0 183 -4 188 -11z m512 -26 c2 -18 -2 -41 -8 -53 -10 -19
-20 -20 -141 -20 l-129 0 2 -202 3 -203 125 -5 c115 -5 125 -7 128 -25 2 -11
10 -37 18 -59 8 -21 13 -40 11 -42 -1 -2 -63 -6 -137 -9 -129 -6 -137 -5 -175
17 -69 40 -76 67 -85 325 -4 125 -4 237 0 249 5 12 21 31 36 43 26 20 36 21
188 19 l161 -3 3 -32z m405 5 c-15 -80 -12 -78 -120 -78 -54 0 -104 -4 -111
-8 -9 -7 -12 -53 -10 -198 l3 -189 105 -5 105 -5 0 -60 0 -60 -109 0 -108 0
-48 51 -47 52 -6 113 c-4 63 -7 162 -7 221 0 99 2 109 25 136 43 52 77 62 212
62 l123 0 -7 -32z m443 1 c-3 -17 -6 -42 -6 -55 0 -23 -3 -23 -97 -26 l-98 -3
-3 -262 -2 -263 -45 0 c-58 0 -70 19 -13 22 l43 1 -42 4 -43 4 0 173 c0 95 -3
207 -6 249 l-7 77 -53 0 c-59 0 -60 0 -48 73 l7 37 210 0 210 0 -7 -31z m508
-2 c18 -25 21 -42 21 -135 0 -131 -13 -167 -66 -191 l-37 -17 58 -97 c32 -53
63 -110 68 -127 11 -30 10 -30 -24 -30 -38 0 -41 2 -136 129 -35 47 -71 86
-80 87 -10 1 -25 9 -34 18 -8 9 -31 16 -49 16 l-34 0 6 -130 6 -130 -57 0
c-36 0 -58 4 -61 13 -2 6 -5 150 -7 320 l-3 307 204 -2 204 -3 21 -28z m532
-9 l34 -38 0 -260 c0 -286 -5 -313 -57 -326 -30 -8 -259 1 -285 11 -9 4 -36
34 -59 68 l-44 62 -6 120 c-12 206 -10 313 5 344 27 52 64 62 229 59 l149 -3
34 -37z m467 28 c18 -7 46 -27 63 -44 40 -40 43 -66 35 -363 -7 -263 -7 -265
-80 -296 -29 -12 -51 -12 -175 2 -173 20 -186 23 -186 36 0 8 13 10 38 6 69
-11 280 -20 306 -13 14 3 32 19 41 36 15 29 15 30 -9 30 -13 0 -26 5 -28 11
-4 12 -16 14 -133 24 -38 3 -78 8 -87 11 -34 10 -57 -6 -69 -47 -16 -50 -46
-54 -53 -6 -3 17 -7 166 -8 330 l-4 297 159 0 c110 0 167 -4 190 -14z m564
-22 c-3 -20 -13 -47 -22 -61 -16 -24 -19 -25 -131 -21 l-114 3 0 -91 0 -92 95
-7 c79 -6 98 -11 119 -30 21 -19 25 -31 23 -72 l-2 -48 -50 0 c-28 0 -81 3
-120 5 l-70 5 0 -75 0 -75 96 -16 c57 -10 115 -27 145 -43 27 -14 43 -26 37
-26 -7 0 -13 -19 -15 -47 -3 -38 -5 -44 -13 -28 -12 28 -36 45 -60 43 -26 -2
-112 11 -150 23 -16 5 -42 10 -57 11 -16 1 -28 6 -28 11 0 4 -4 6 -9 3 -5 -4
-12 0 -14 6 -3 7 -6 -6 -6 -30 -1 -30 -5 -42 -13 -40 -10 4 -13 57 -15 214 -1
153 1 202 8 184 13 -30 17 -48 18 -75 1 -18 2 -18 17 -3 15 15 14 20 -17 70
-33 53 -34 54 -37 196 l-4 142 197 0 198 0 -6 -36z m-1659 -504 c29 -40 51
-77 49 -83 -2 -6 -23 18 -47 53 -24 36 -56 81 -72 101 -15 20 -28 41 -28 45 1
12 33 -27 98 -116z m1082 -130 c-8 -5 -22 -9 -30 -9 -10 0 -8 3 5 9 27 12 43
12 25 0z m-3230 -9 c0 -10 -48 -16 -259 -32 -128 -10 -155 -9 -162 2 -13 21
-11 33 4 21 8 -7 52 -7 142 2 160 16 275 19 275 7z m3653 -81 c71 -11 133 -22
138 -26 16 -9 10 -26 -7 -20 -9 3 -91 17 -182 31 -91 14 -168 28 -171 30 -11
11 103 3 222 -15z m-2425 -147 c-27 -2 -69 -2 -95 0 -27 2 -5 3 47 3 52 0 74
-1 48 -3z m480 0 c-10 -2 -28 -2 -40 0 -13 2 -5 4 17 4 22 1 32 -1 23 -4z
m-685 -10 c-34 -2 -93 -2 -130 0 -37 2 -9 3 62 3 72 0 102 -1 68 -3z m970 0
c-35 -2 -91 -2 -125 0 -35 2 -7 3 62 3 69 0 97 -1 63 -3z m-1275 -10 c-26 -2
-71 -2 -100 0 -29 2 -8 3 47 3 55 0 79 -1 53 -3z m1897 -2 l230 -7 -235 -1
c-129 0 -305 3 -390 7 l-155 6 160 1 c88 0 264 -3 390 -6z m-1155 -102 c0 -6
9 -24 21 -40 l20 -29 -39 0 c-37 0 -39 1 -35 28 3 15 6 33 8 40 5 15 25 16 25
1z m-894 -41 c5 -7 7 -29 5 -49 -1 -22 4 -42 13 -52 12 -11 13 -17 3 -20 -7
-3 -5 -6 6 -6 30 -2 19 -21 -12 -21 -42 0 -66 -10 -49 -21 10 -7 8 -9 -6 -9
-13 0 -16 5 -12 17 25 63 37 115 34 139 l-3 29 -23 -35 c-25 -40 -29 -33 -7
10 16 31 38 39 51 18z m802 -24 c-10 -20 -9 -27 2 -34 8 -5 19 -6 25 -3 5 3 5
0 -1 -6 -13 -14 -41 -4 -64 23 -10 13 -10 16 3 16 8 0 20 7 27 15 18 22 21 18
8 -11z m1240 7 c-1 -5 -34 -33 -73 -62 l-70 -53 33 42 c18 23 45 51 59 62 26
20 57 27 51 11z m-2398 -71 c0 -70 0 -70 -27 -70 -20 0 -24 3 -14 9 8 5 15 26
16 47 1 22 3 49 4 62 0 12 6 22 11 22 6 0 10 -30 10 -70z m778 63 c-10 -2 -26
-2 -35 0 -10 3 -2 5 17 5 19 0 27 -2 18 -5z m891 0 c-28 -4 -49 -37 -49 -77 0
-29 17 -44 59 -52 23 -5 29 -9 19 -15 -24 -15 -49 -9 -73 17 -47 51 -22 135
39 133 28 -2 28 -2 5 -6z m824 0 c-7 -2 -21 -2 -30 0 -10 3 -4 5 12 5 17 0 24
-2 18 -5z m-1782 -21 c-7 -14 -6 -25 5 -40 14 -20 14 -22 0 -22 -26 0 -37 34
-20 58 19 27 28 29 15 4z m646 8 c13 0 13 -3 3 -15 -7 -8 -24 -15 -39 -15 -19
0 -22 3 -12 9 8 5 10 14 6 22 -6 9 -3 11 9 6 10 -4 25 -7 33 -7z m370 4 c-3
-3 -12 -4 -19 -1 -8 3 -5 6 6 6 11 1 17 -2 13 -5z m-2130 -26 c-3 -8 -6 -5 -6
6 -1 11 2 17 5 13 3 -3 4 -12 1 -19z m2533 -33 c0 -41 -4 -57 -15 -62 -21 -8
-22 -6 -30 60 -7 57 -7 57 19 57 25 0 26 -2 26 -55z m334 40 c-7 -18 12 -44
41 -55 14 -6 15 -9 4 -9 -32 -2 -72 53 -52 72 10 11 13 8 7 -8z m-473 -108
c-13 -13 -15 44 -3 83 6 20 8 16 10 -24 2 -27 -2 -54 -7 -59z m-801 55 c0 -8
-11 -23 -50 -69 -6 -7 -10 -15 -10 -18 2 -52 -14 -46 -18 7 -1 23 -8 48 -14
55 -7 9 -7 13 1 13 6 0 11 -6 11 -12 0 -9 4 -8 10 2 5 8 10 11 10 7 0 -5 10
-1 22 7 25 18 38 20 38 8z m-380 -35 c0 -24 -17 -47 -34 -47 -5 0 -1 9 10 21
18 20 18 21 -1 35 -18 14 -18 14 3 14 16 0 22 -6 22 -23z m-65 3 c-3 -5 -15
-10 -27 -10 -18 0 -19 -2 -7 -17 12 -15 12 -16 -4 -10 -10 4 -21 7 -23 7 -2 0
-4 9 -4 20 0 16 7 20 36 20 21 0 33 -4 29 -10z m1315 -5 c0 -12 -19 -12 -23 0
-4 9 -1 12 9 8 7 -3 14 -7 14 -8z m-1460 -11 c0 -2 -9 -4 -20 -4 -11 0 -20 4
-20 9 0 5 9 7 20 4 11 -3 20 -7 20 -9z m-600 -24 c20 -6 21 -8 5 -8 -11 0 -33
4 -50 8 -27 7 -27 8 -5 8 14 0 36 -4 50 -8z m400 0 c0 -5 -15 -9 -32 -9 l-33
1 30 8 c17 4 31 8 33 9 1 0 2 -3 2 -9z"/>
<path d="M8082 6933 c-33 -6 -22 -27 19 -35 58 -11 141 -36 222 -68 43 -17 83
-28 88 -24 5 3 9 0 9 -5 0 -6 10 -11 23 -11 20 1 19 2 -8 17 -16 9 -57 36 -90
61 -81 62 -168 83 -263 65z"/>
<path d="M8459 6786 c-16 -12 -18 -25 -6 -43 4 -6 5 -17 2 -25 -3 -7 -1 -19 3
-25 9 -15 79 -26 87 -14 2 5 16 9 30 9 13 0 22 -4 19 -9 -3 -5 -1 -9 5 -9 19
0 19 15 0 38 -11 14 -23 21 -31 16 -7 -4 -10 -4 -6 1 7 8 -13 26 -62 57 -20
12 -29 13 -41 4z"/>
<path d="M8448 6593 c6 -2 18 -2 25 0 6 3 1 5 -13 5 -14 0 -19 -2 -12 -5z"/>
<path d="M7365 6230 c3 -5 -5 -11 -17 -13 -17 -3 -15 -5 9 -6 36 -1 53 14 23
22 -11 3 -18 1 -15 -3z"/>
<path d="M7215 6068 c-71 -12 -112 -36 -112 -65 0 -12 2 -23 6 -24 46 -4 98
-2 94 4 -3 5 19 6 48 2 30 -3 65 -2 78 3 23 8 22 9 -16 15 -23 4 -50 4 -60 1
-12 -5 -15 -4 -8 3 6 5 32 18 58 27 27 10 45 22 40 26 -14 13 -76 17 -128 8z"/>
<path d="M7428 5963 c7 -3 16 -2 19 1 4 3 -2 6 -13 5 -11 0 -14 -3 -6 -6z"/>
<path d="M7229 5587 c6 -8 7 -17 3 -21 -4 -5 17 -6 46 -3 28 3 52 1 52 -4 0
-4 7 -6 16 -2 11 4 12 8 4 13 -7 4 -9 13 -6 19 5 8 -13 11 -60 11 -54 0 -64
-2 -55 -13z"/>
<path d="M7300 5524 l-25 -15 30 6 c17 4 48 9 69 11 57 6 57 14 0 14 -27 -1
-60 -8 -74 -16z"/>
<path d="M7478 5506 c-10 -7 -18 -16 -18 -20 0 -12 18 -6 41 14 28 22 6 28
-23 6z"/>
<path d="M8485 5460 l-30 -7 28 -8 c17 -4 33 -3 39 3 14 14 -2 20 -37 12z"/>
<path d="M8554 5464 c-12 -5 -6 -54 7 -54 15 0 22 22 9 30 -7 4 -9 13 -6 19 8
12 7 12 -10 5z"/>
<path d="M7428 5073 c7 -3 16 -2 19 1 4 3 -2 6 -13 5 -11 0 -14 -3 -6 -6z"/>
<path d="M7488 5073 c6 -2 18 -2 25 0 6 3 1 5 -13 5 -14 0 -19 -2 -12 -5z"/>
<path d="M8530 6075 c-11 -13 -10 -14 4 -9 9 3 16 10 16 15 0 13 -6 11 -20 -6z"/>
<path d="M8505 5810 c-3 -5 -2 -10 4 -10 5 0 13 5 16 10 3 6 2 10 -4 10 -5 0
-13 -4 -16 -10z"/>
<path d="M8430 5766 c0 -9 40 -13 46 -5 3 5 -6 9 -20 9 -14 0 -26 -2 -26 -4z"/>
<path d="M8455 5710 c3 -5 10 -10 16 -10 5 0 9 5 9 10 0 6 -7 10 -16 10 -8 0
-12 -4 -9 -10z"/>
<path d="M7081 2544 c-4 -50 44 -95 117 -109 55 -11 222 5 222 21 0 8 -3 13
-7 13 -5 -1 -10 -1 -13 0 -3 1 -67 3 -143 5 -76 2 -141 7 -145 11 -4 3 -12 21
-19 38 -6 18 -12 27 -12 21z"/>
<path d="M7587 2469 c7 -7 15 -10 18 -7 3 3 -2 9 -12 12 -14 6 -15 5 -6 -5z"/>
<path d="M7650 2459 c-22 -4 -1 -7 58 -8 50 0 92 3 92 7 0 9 -99 10 -150 1z"/>
<path d="M8478 2878 c-2 -46 -3 -84 -3 -85 0 -3 89 -5 163 -4 l73 1 -3 83 -3
82 -112 3 -111 3 -4 -83z"/>
<path d="M8780 2495 c0 -3 9 -15 19 -26 18 -19 19 -19 18 -2 -2 18 -15 33 -29
33 -5 0 -8 -2 -8 -5z"/>
<path d="M8420 2471 c0 -5 -8 -12 -17 -14 -10 -3 -1 -5 20 -6 34 -1 37 1 23
14 -17 17 -26 19 -26 6z"/>
<path d="M9015 2858 c-4 -51 -4 -138 -1 -193 l5 -100 63 -11 c35 -7 87 -12
116 -13 l52 -1 0 205 0 205 -114 0 -114 0 -7 -92z"/>
<path d="M9325 2464 c-11 -8 -25 -12 -33 -9 -7 2 -10 0 -7 -5 8 -12 -37 -13
-50 -1 -6 5 -39 11 -74 14 -41 3 -59 2 -50 -4 12 -7 12 -9 -1 -9 -9 0 -21 5
-26 10 -7 7 -23 6 -50 -4 -51 -18 -36 -23 105 -33 102 -8 119 -7 152 10 21 10
43 25 50 33 15 18 9 17 -16 -2z"/>
<path d="M9560 2736 l0 -213 105 -12 c58 -7 110 -9 117 -5 8 5 9 65 4 217 -4
116 -9 215 -12 219 -3 4 -52 8 -110 8 l-104 0 0 -214z"/>
<path d="M7098 1873 c7 -3 16 -2 19 1 4 3 -2 6 -13 5 -11 0 -14 -3 -6 -6z"/>
</g>
</svg>
